<svg width="36" height="24" viewBox="0 0 36 24" fill="none" xmlns="http://www.w3.org/2000/svg">
<path d="M12.2864 9.29616C12.1887 9.35474 12.0812 9.38257 11.9753 9.38257C11.7645 9.38257 11.5595 9.27249 11.4449 9.07442C11.2726 8.77684 11.3704 8.39385 11.663 8.21877L14.1717 6.71823C14.4641 6.54315 14.8411 6.64239 15.0133 6.93997C15.1855 7.23755 15.0878 7.62054 14.7951 7.79562L12.2864 9.29616Z" fill="#FF7F22"/>
<path fill-rule="evenodd" clip-rule="evenodd" d="M35.9907 14.3429L35.485 11.4084C35.4382 11.1367 35.2217 10.9283 34.9524 10.8956L32.3119 10.575L31.3946 8.85151C31.6912 8.33569 31.7888 7.72162 31.662 7.13272C31.5184 6.46582 31.1002 5.89184 30.5143 5.55793L27.9679 4.10622C27.6719 3.93739 27.2972 4.04455 27.131 4.34563C26.965 4.6467 27.0704 5.02761 27.3666 5.19644L29.913 6.64815C30.4988 6.98222 30.6693 7.76029 30.272 8.31577C29.9796 8.72451 29.4491 8.89001 28.9812 8.71793L21.7304 6.04967C22.241 5.70934 22.6629 5.21927 22.9235 4.60862C23.1707 4.02913 23.248 3.4044 23.1545 2.79517L25.1873 3.95405C25.2824 4.0083 25.3856 4.03405 25.4874 4.03405C25.7026 4.03405 25.9115 3.91897 26.0243 3.71464C26.1903 3.41357 26.0848 3.03266 25.7888 2.86383L21.7962 0.587554C21.623 0.466057 21.4368 0.360893 21.2394 0.273896C20.445 -0.0763455 19.564 -0.0911785 18.7587 0.23223C17.9533 0.555638 17.3201 1.17837 16.9755 1.98594C16.893 2.17935 16.8303 2.37651 16.7863 2.57509L5.20034 7.75546C3.51922 7.79829 1.94687 8.6511 0.972902 10.0553C0.77724 10.3374 0.843636 10.7273 1.12119 10.9262C1.39882 11.1252 1.78228 11.0576 1.97786 10.7755C2.74518 9.66916 3.99465 9.00742 5.32207 9.00367L5.33371 9.00376L5.34207 9.00367C7.601 9.00842 9.43721 10.8781 9.43721 13.1757C9.43721 15.4761 7.59625 17.3476 5.33338 17.3476C3.07052 17.3476 1.22955 15.4761 1.22955 13.1757C1.22955 13.0658 1.2348 12.9487 1.24578 12.8177C1.27447 12.4738 1.02331 12.1713 0.685023 12.1422C0.347553 12.1124 0.0492638 12.3682 0.0205743 12.7122C0.0067214 12.8786 0 13.0302 0 13.1757C0 15.1764 1.07143 16.9274 2.66165 17.8669L5.47118 24H6.82743L4.30646 18.4969C4.63885 18.563 4.98222 18.5978 5.33338 18.5978C6.8413 18.5978 8.20504 17.9583 9.17597 16.9321L12.37 24H13.7234L10.0608 15.8952L19.7993 6.66832L28.5628 9.89315C28.822 9.98857 29.0905 10.0344 29.3567 10.0344C29.7469 10.0344 30.1319 9.93565 30.4748 9.74982L31.2307 11.1698L30.0505 13.5922C29.93 13.8394 29.9832 14.1375 30.1814 14.326L32.3211 16.3615C32.4396 16.4743 32.5905 16.5302 32.741 16.5302C32.9052 16.5302 33.069 16.4637 33.1901 16.3322C33.4221 16.0802 33.4092 15.6847 33.1611 15.4488L31.3551 13.7307L32.2812 11.8299L34.3529 12.0816L34.7797 14.5585C34.8384 14.8986 35.1572 15.1261 35.4914 15.0664C35.8257 15.0068 36.0493 14.6828 35.9907 14.3429ZM19.9522 1.25179C20.7547 1.25179 21.5093 1.74411 21.8209 2.54584C22.3746 3.9713 21.2421 5.4886 19.7426 5.33202C18.5048 5.15211 17.8482 4.11421 17.9471 3.09507C17.9487 3.08341 17.9499 3.07174 17.9508 3.05999C18.0687 2.02852 18.9309 1.25179 19.9522 1.25179ZM7.35419 8.15795L16.7725 3.94672C16.9625 4.89995 17.5628 5.75442 18.463 6.22583L10.6483 13.6301C10.6606 13.4802 10.6668 13.3287 10.6668 13.1757C10.6668 10.9127 9.29598 8.96909 7.35419 8.15795Z" fill="#FF7F22"/>
<path d="M10.3849 24L8.5383 19.9139C8.39658 19.6003 8.03148 19.4626 7.72303 19.6069C7.41449 19.751 7.27933 20.1221 7.42097 20.4357L9.03172 24H10.3849Z" fill="#FF7F22"/>
<path fill-rule="evenodd" clip-rule="evenodd" d="M8.05107 13.1757C8.05107 11.6523 6.83193 10.4129 5.33336 10.4129C3.83478 10.4129 2.61564 11.6524 2.61564 13.1757C2.61564 14.6991 3.83478 15.9386 5.33336 15.9386C6.83193 15.9386 8.05107 14.6992 8.05107 13.1757ZM3.84511 13.1757C3.84511 12.3415 4.51275 11.6629 5.33327 11.6629C6.15379 11.6629 6.82144 12.3416 6.82144 13.1757C6.82144 14.0099 6.15379 14.6886 5.33327 14.6886C4.51275 14.6886 3.84511 14.01 3.84511 13.1757Z" fill="#FF7F22"/>
</svg>
