<svg width="31" height="32" viewBox="0 0 31 32" fill="none" xmlns="http://www.w3.org/2000/svg">
<g filter="url(#filter0_d)">
<path d="M12.5571 1.71484C12.0839 1.71484 11.6799 1.88225 11.345 2.21708C11.0102 2.5519 10.8428 2.95592 10.8428 3.42913V15.4291L8.82049 12.7238C8.45442 12.2416 7.97674 12.0006 7.38745 12.0006C6.92317 12.0006 6.52584 12.1702 6.19549 12.5095C5.86513 12.8488 5.69995 13.2506 5.69995 13.7148C5.69995 14.0988 5.81602 14.4425 6.04817 14.7461L11.191 21.6032C11.5303 22.0586 11.9857 22.2863 12.5571 22.2863H22.1732C22.3696 22.2863 22.5459 22.226 22.7022 22.1055C22.8584 21.9849 22.9589 21.8309 23.0035 21.6434L24.2357 16.7148C24.4499 15.8577 24.5571 14.9916 24.5571 14.1166V11.2104C24.5571 10.8443 24.4321 10.5273 24.1821 10.2595C23.9321 9.99163 23.6285 9.8577 23.2714 9.8577C22.9142 9.8577 22.6107 9.9827 22.3607 10.2327C22.1107 10.4827 21.9857 10.7863 21.9857 11.1434H21.5571V10.3265C21.5571 9.89788 21.4142 9.53404 21.1285 9.23493C20.8428 8.93583 20.4857 8.78627 20.0571 8.78627C19.6464 8.78627 19.2937 8.93359 18.9991 9.22824C18.7044 9.52288 18.5571 9.87556 18.5571 10.2863V11.1434H18.1285V9.93806C18.1285 9.44699 17.9633 9.02511 17.633 8.67243C17.3026 8.31975 16.8964 8.14342 16.4142 8.14342C15.941 8.14342 15.537 8.31083 15.2022 8.64565C14.8674 8.98047 14.7 9.38449 14.7 9.8577V11.1434H14.2714V3.50949C14.2714 3.01842 14.1062 2.59654 13.7758 2.24386C13.4455 1.89118 13.0392 1.71484 12.5571 1.71484Z" fill="white"/>
<path d="M12.5714 1.71429C12.0982 1.71429 11.6942 1.8817 11.3594 2.21652C11.0246 2.55134 10.8571 2.95536 10.8571 3.42857V15.4286L8.83482 12.7232C8.46875 12.2411 7.99107 12 7.40179 12C6.9375 12 6.54018 12.1696 6.20982 12.5089C5.87946 12.8482 5.71429 13.25 5.71429 13.7143C5.71429 14.0982 5.83036 14.442 6.0625 14.7455L11.2054 21.6027C11.5446 22.058 12 22.2857 12.5714 22.2857H22.1875C22.3839 22.2857 22.5603 22.2254 22.7165 22.1049C22.8728 21.9844 22.9732 21.8304 23.0179 21.6429L24.25 16.7143C24.4643 15.8571 24.5714 14.9911 24.5714 14.1161V11.2098C24.5714 10.8438 24.4464 10.5268 24.1964 10.2589C23.9464 9.99107 23.6429 9.85714 23.2857 9.85714C22.9286 9.85714 22.625 9.98214 22.375 10.2321C22.125 10.4821 22 10.7857 22 11.1429H21.5714V10.3259C21.5714 9.89732 21.4286 9.53348 21.1429 9.23438C20.8571 8.93527 20.5 8.78571 20.0714 8.78571C19.6607 8.78571 19.308 8.93304 19.0134 9.22768C18.7187 9.52232 18.5714 9.875 18.5714 10.2857V11.1429H18.1429V9.9375C18.1429 9.44643 17.9777 9.02455 17.6473 8.67188C17.317 8.3192 16.9107 8.14286 16.4286 8.14286C15.9554 8.14286 15.5513 8.31027 15.2165 8.64509C14.8817 8.97991 14.7143 9.38393 14.7143 9.85714V11.1429H14.2857V3.50893C14.2857 3.01786 14.1205 2.59598 13.7902 2.2433C13.4598 1.89062 13.0536 1.71429 12.5714 1.71429ZM12.5714 0C13.5268 0 14.3371 0.345982 15.0022 1.03795C15.6674 1.72991 16 2.55357 16 3.50893V6.45536C16.1964 6.4375 16.3393 6.42857 16.4286 6.42857C17.3125 6.42857 18.0848 6.73661 18.7455 7.35268C19.1652 7.16518 19.6071 7.07143 20.0714 7.07143C21.0804 7.07143 21.9018 7.45982 22.5357 8.23661C22.7768 8.17411 23.0268 8.14286 23.2857 8.14286C24.125 8.14286 24.8348 8.4442 25.4152 9.04688C25.9955 9.64955 26.2857 10.3705 26.2857 11.2098V14.1161C26.2857 15.1518 26.1607 16.1562 25.9107 17.1295L24.6786 22.058C24.5357 22.6295 24.2321 23.096 23.7679 23.4576C23.3036 23.8192 22.7768 24 22.1875 24H12.5714C12.0357 24 11.5246 23.8772 11.0379 23.6317C10.5513 23.3862 10.1473 23.0536 9.82589 22.6339L4.68304 15.7768C4.22768 15.1696 4 14.4821 4 13.7143C4 12.7768 4.33259 11.971 4.99777 11.2969C5.66295 10.6228 6.46429 10.2857 7.40179 10.2857C8.03571 10.2857 8.61607 10.442 9.14286 10.7545V3.42857C9.14286 2.48214 9.47768 1.67411 10.1473 1.00446C10.817 0.334821 11.625 0 12.5714 0ZM14.2857 18.8571V13.7143H13.8571V18.8571H14.2857ZM17.7143 18.8571V13.7143H17.2857V18.8571H17.7143ZM21.1429 18.8571V13.7143H20.7143V18.8571H21.1429Z" fill="#333333"/>
</g>
<defs>
<filter id="filter0_d" x="0" y="0" width="30.2857" height="32" filterUnits="userSpaceOnUse" color-interpolation-filters="sRGB">
<feFlood flood-opacity="0" result="BackgroundImageFix"/>
<feColorMatrix in="SourceAlpha" type="matrix" values="0 0 0 0 0 0 0 0 0 0 0 0 0 0 0 0 0 0 127 0"/>
<feOffset dy="4"/>
<feGaussianBlur stdDeviation="2"/>
<feColorMatrix type="matrix" values="0 0 0 0 0 0 0 0 0 0 0 0 0 0 0 0 0 0 0.25 0"/>
<feBlend mode="normal" in2="BackgroundImageFix" result="effect1_dropShadow"/>
<feBlend mode="normal" in="SourceGraphic" in2="effect1_dropShadow" result="shape"/>
</filter>
</defs>
</svg>
